<svg fill="#FFFFFF" xmlns="http://www.w3.org/2000/svg" xmlns:xlink="http://www.w3.org/1999/xlink" version="1.1" x="0px" y="0px" viewBox="0 0 100 100" enable-background="new 0 0 100 100" xml:space="preserve"><path d="M60.624,21.688C29.677,21.688,4.5,46.865,4.5,77.812h1c0-30.396,24.729-55.125,55.124-55.125  c18.68,0,33.876,15.197,33.876,33.876c0,11.441-9.308,20.749-20.748,20.749c-6.963,0-12.628-5.665-12.628-12.627  c0-4.202,3.419-7.621,7.621-7.621c2.485,0,4.507,2.021,4.507,4.506c0,1.442-1.173,2.615-2.615,2.615  c-0.768,0-1.392-0.624-1.392-1.391h-1c0,1.318,1.073,2.391,2.392,2.391c1.993,0,3.615-1.622,3.615-3.615  c0-3.036-2.471-5.506-5.507-5.506c-4.754,0-8.621,3.867-8.621,8.621c0,7.514,6.113,13.627,13.628,13.627  c11.992,0,21.748-9.756,21.748-21.749C95.5,37.333,79.854,21.688,60.624,21.688z"></path></svg>